<svg viewBox="0 0 20 20" >
	<title>Tools-Main_Sidebar-Find_Boards</title>
	<g>
		<path d="M16 10c0-1.6-1.3-2.8-3-2.8h-.5c-1.2.2-2 1.1-2.5 1.8-.5-.7-1.3-1.6-2.6-1.8h-.5c-1.6 0-3 1.3-3 2.8 0 1.6 1.3 2.9 3 2.9h.5c1.3-.2 2.1-1.1 2.6-1.8.5.7 1.3 1.6 2.6 1.8h.5c1.6 0 2.9-1.3 2.9-2.9zm-8.7 1.8H7c-1.1 0-2-.8-2-1.8s.9-1.8 2-1.8h.3c1.2.2 1.9 1.3 2.1 1.8-.2.5-.9 1.6-2.1 1.8zm3.3-1.8c.2-.5 1-1.6 2.2-1.8h.3c1 0 1.9.8 1.9 1.8s-.9 1.8-1.9 1.8h-.3c-1.3-.2-2-1.3-2.2-1.8z" />
		<polygon points="6.1,10.3 7.9,10.3 7.9,10.3 7.9,9.7 7.9,9.7 6.1,9.7 6.1,9.7 6.1,10.3" />
		<polygon points="13.2,10.3 13.8,10.3 13.8,10.3 13.8,9.7 13.8,9.7 13.2,9.7 13.2,9.7 13.2,9.1 13.2,9.1 12.7,9.1 12.7,9.1 12.7,9.7 12.7,9.7 12.1,9.7 12.1,9.7 12.1,10.3 12.1,10.3 12.7,10.3 12.7,10.3 12.7,10.9 12.7,10.9 13.2,10.9 13.2,10.9 13.2,10.3" />
	</g>
	<g>
		<path d="M20 2c0-1.1-.8-1.9-1.9-2H2C.9 0 .1.8 0 1.8v16.1c0 1.1.9 2 2 2h16c1.1 0 2-.9 2-2.1V2zm-2 16H2V2h16v16z" />
	</g>
</svg>
