<svg viewBox="0 0 126 59.9">
	<title>Editor-Main_Sidebar-Logo</title>
	<g>
		<path d="M126 30C126 13.5 112.1.1 95 .1c-1.6 0-3.2.1-4.8.3C76.9 2.3 68 11.9 63 19.2 58 11.9 49.1 2.3 35.8.4 34.2.2 32.6.1 31 .1 13.9.1 0 13.5 0 30s13.9 29.9 31 29.9c1.6 0 3.2-.1 4.8-.3C49.1 57.7 58 48.1 63 40.8c5 7.3 13.9 16.9 27.2 18.8 1.6.2 3.2.3 4.8.3 17.1 0 31-13.4 31-29.9zM34.3 49.1c-1.1.2-2.2.2-3.3.2-11.3 0-20.4-8.7-20.4-19.3 0-10.7 9.2-19.3 20.4-19.3 1.1 0 2.2.1 3.3.2C46.8 12.7 54.5 25.1 57.1 30c-2.6 4.9-10.3 17.3-22.8 19.1zM68.9 30c2.6-4.9 10.3-17.3 22.8-19.1 1.1-.2 2.2-.2 3.3-.2 11.3 0 20.4 8.7 20.4 19.3 0 10.7-9.2 19.3-20.4 19.3-1.1 0-2.2-.1-3.3-.2C79.2 47.3 71.5 34.9 68.9 30z" />
		<polygon points="22.5,33.1 41.1,33.1 41.1,33.1 41.1,27.1 41.1,27.1 22.5,27.1 22.5,27.1 22.5,33.1" />
		<polygon points="97,33.1 103.3,33.1 103.3,33.1 103.3,27.1 103.3,27.1 97,27.1 97,27.1 97,20.8 97,20.8 91,20.8 91,20.8 91,27.1 91,27.1 84.7,27.1 84.7,27.1 84.7,33.1 84.7,33.1 91,33.1 91,33.1 91,39.4 91,39.4 97,39.4 97,39.4 97,33.1" />
	</g>
</svg>
