<svg viewBox="0 0 20 20" >
	<title>Tools-Main_Sidebar-Board_Settings</title>
	<path d="M19 9.5a1 1 0 1 0 0-2h-2.027v-1H19a1 1 0 1 0 0-2h-2.426A2.927 2.927 0 0 0 15.5 3.426V1a1 1 0 1 0-2 0v2.027h-1V1a1 1 0 1 0-2 0v2.027h-1V1a1 1 0 0 0-2 0v2.027h-1V1a1 1 0 0 0-2 0v2.426A2.912 2.912 0 0 0 3.426 4.5H1a1 1 0 0 0 0 2h2.027v1H1a1 1 0 0 0 0 2h2.027v1H1a1 1 0 0 0 0 2h2.027v1H1a1 1 0 0 0 0 2h2.426c.258.448.626.816 1.074 1.074V19a1 1 0 0 0 2 0v-2.027h1V19a1 1 0 0 0 2 0v-2.027h1V19a1 1 0 0 0 2 0v-2.027h1V19a1 1 0 1 0 2 0v-2.426a2.927 2.927 0 0 0 1.074-1.074H19a1 1 0 1 0 0-2h-2.027v-1H19a1 1 0 1 0 0-2h-2.027v-1H19zM5.946 15.027a.973.973 0 0 1-.973-.973V5.946c0-.537.436-.973.973-.973h8.108c.537 0 .974.436.974.973v8.108a.974.974 0 0 1-.974.973H5.946z" />
</svg>
