<svg viewBox="0 0 20 19.8">
	<title>Editor-Libraries-Server_Button</title>
	<g>
		<polygon points="11.8,5.1 14.9,5.1 14.9,7.9 16.9,7.9 16.9,5.1 19.8,5.1 19.8,3.1 16.9,3.1 16.9,0 14.9,0 14.9,3.1 11.8,3.1" />
		<path d="M0 15.6c0-1.4.7-2.6 1.8-3.4.3-3 2.8-5.4 5.9-5.4 1.9 0 3.6.9 4.8 2.4.2 0 .5-.1.7-.1 1.7 0 3.3 1 4.1 2.6 1.6.6 2.7 2.2 2.7 4 0 2.3-1.9 4.2-4.2 4.2H4.2c-2.3-.1-4.2-2-4.2-4.3zm12.4-4.5l-.8.3-.5-.7c-.7-1.2-2-1.9-3.5-1.9-2.2 0-4 1.8-4.1 4v.6l-.6.3c-.7.4-1.2 1.2-1.2 2C1.7 17 2.7 18 4 18h11.6c1.3 0 2.3-1 2.3-2.3 0-1-.7-2-1.7-2.2l-.6-.2-.2-.6C15 11.7 14 11 13 11c-.1 0-.3 0-.6.1z" />
	</g>
</svg>
