<svg viewBox="0 0 16.845 17.269">
	<title>Global-Menu_Home-Power</title>
	<path d="M16.845 8.848a8.416 8.416 0 0 0-4.993-7.689v3.084c1.409 1.05 2.331 2.712 2.335 4.605a5.776 5.776 0 0 1-5.764 5.764 5.773 5.773 0 0 1-5.764-5.764c0-1.893.927-3.555 2.335-4.605V1.156C2.054 2.472 0 5.415 0 8.848a8.419 8.419 0 0 0 8.424 8.421 8.424 8.424 0 0 0 8.424-8.421h-.003z" />
	<path d="M9.924 8.964a1.04 1.04 0 0 1-1.038 1.038h-.923a1.04 1.04 0 0 1-1.038-1.038V1.038A1.04 1.04 0 0 1 7.963 0h.923a1.04 1.04 0 0 1 1.038 1.038v7.926z" />
</svg>
