<svg viewBox="0 0 60.875 59.875">
	<title>Editor-Serial_Disconnect</title>
	<path d="M60.326 55.498l-16.61-16.506a23.801 23.801 0 0 0 4.917-14.519C48.633 11.267 37.927.56 24.72.56S.807 11.267.807 24.473 11.513 48.386 24.72 48.386a23.81 23.81 0 0 0 15.383-5.61l16.535 16.432 3.688-3.71zM6.038 24.473c0-10.301 8.381-18.682 18.682-18.682s18.682 8.381 18.682 18.682-8.381 18.682-18.682 18.682-18.682-8.38-18.682-18.682z" />
	<polygon points="32.214,30.187 26.492,24.466 32.154,18.804 30.37,17.019 24.708,22.681 19.109,17.082 17.324,18.866 22.924,24.466 17.265,30.125 19.049,31.909 24.708,26.25 30.43,31.972" />
</svg>
 
