<svg viewBox="0 0 20 20">
	<title>Editor-Main_Sidebar-Preferences</title>
	<g>
		<path d="M.9 17.2v1.7c0 .6.4 1 1 1s1-.5 1-1v-1.7h-2zm2-5.5V1c0-.6-.5-1-1-1S.9.5.9 1v10.7h2zm0 1.1c-.1 0 0 0 0 0h-2c-.5.1-.9.5-.9 1v1.6c0 .5.4.9.9 1h2c.5-.1.9-.5.9-1v-1.6c-.1-.6-.5-1-.9-1zm8-5.6h.1V1.1c0-.5-.5-1-1-1-.6 0-1 .5-1 1v6.1H10.9zm-1.8 5.5H9V19c0 .6.4 1 1 1s1-.5 1-1v-6.3H9.1zm8.2-4.6h-.1V19c0 .6.4 1 1 1s1-.5 1-1V8.1h-1.9zM19 2.5h.1V1c0-.6-.5-1-1-1-.6 0-1 .5-1 1v1.5H19z" />
	</g>
	<g>
		<path d="M11 8.2c-.1 0 0 0 0 0H9c-.5.1-.9.5-.9 1v1.6c0 .5.4.9.9 1h2c.5-.1.9-.5.9-1V9.2c-.1-.5-.4-.9-.9-1z" />
	</g>
	<g>
		<path d="M19.1 3.5h-2c-.5.1-.9.5-.9 1v1.6c0 .5.4.9.9 1h2c.5-.1.9-.5.9-1V4.5c0-.5-.4-.9-.9-1z" />
	</g>
</svg>
