<svg  viewBox="0 0 34.169 39.659">
	<title>Global-Invite</title>
	<polygon points="14.366,39.338 12.92,39.338 12.92,38.812 13.84,38.812 13.84,18.224 14.366,18.224" />
	<polygon points="20.36,39.338 18.913,39.338 18.913,38.812 19.834,38.812 19.834,18.224 20.36,18.224" />
	<path d="M22.291 18.417h-4.229v-1.623a7.573 7.573 0 0 1-1.879 0v1.623h-4.229v-2.661a8.621 8.621 0 0 1-3.419-6.849c0-4.734 3.853-8.586 8.588-8.586 4.735 0 8.587 3.852 8.587 8.586a8.629 8.629 0 0 1-3.419 6.85v2.66zm-3.702-.526h3.177v-2.4l.107-.079a8.095 8.095 0 0 0 3.312-6.505c0-4.444-3.616-8.06-8.061-8.06s-8.062 3.615-8.062 8.06a8.095 8.095 0 0 0 3.311 6.504l.108.079v2.401h3.177v-1.703l.301.045a7.273 7.273 0 0 0 2.328 0l.301-.045v1.703z" />
	<path d="M17.467 10.766a.486.486 0 0 0 0-.689.488.488 0 1 0 0 .689z" />
	<polygon points="11.226,10.11 11.886,10.11 11.886,9.448 12.514,9.448 12.514,10.11 13.176,10.11 13.176,10.736 12.514,10.736 12.514,11.399 11.886,11.399 11.886,10.736 11.226,10.736" />
	<polygon points="21.07,10.11 21.73,10.11 21.73,9.448 22.358,9.448 22.358,10.11 23.02,10.11 23.02,10.736 22.358,10.736 22.358,11.399 21.73,11.399 21.73,10.736 21.07,10.736" />
	<path d="M8.856 11.399A8.56 8.56 0 0 1 .277 3.163l.526-.021a8.037 8.037 0 0 0 8.053 7.731h.002v.526h-.002zM25.313 11.399a8.56 8.56 0 0 0 8.579-8.236l-.526-.021a8.037 8.037 0 0 1-8.053 7.731h-.001l-.001.526h.002z" />
</svg>
