<svg viewBox="0 0 133 28">
	<title>Editor-Main-Logo-topbar</title>
	<path d="M80.895 12.017c0-1.686-.755-2.319-2.547-2.319h-2.214v4.532h2.302c1.37.001 2.459-.509 2.459-2.213z" />
	<polygon points="98.552,15.689 102.364,15.689 100.449,9.962" />
	<path d="M59.325 2.374V26h71.239V2.374H59.325zm9.22 17.689c-3.144 0-5.27-1.704-5.27-5.814 0-3.829 2.196-5.937 5.428-5.937 1.16 0 2.354.281 3.003.685l-.474 1.317c-.65-.527-1.669-.773-2.565-.773-2.6 0-3.882 1.686-3.882 4.673 0 3.092 1.282 4.637 3.865 4.637 1.141 0 2.318-.334 2.862-.685l.352 1.194c-.896.474-2.089.703-3.319.703zm12.737-.176l-2.459-4.445h-2.688v4.445h-1.422V8.469h3.689c2.881 0 3.988 1.212 3.988 3.496 0 1.598-.808 2.705-2.126 3.197l2.705 4.725h-1.687zM93.509 9.699h-6.324v3.724h5.727v1.212h-5.727v4.005h6.324v1.247h-7.746V8.469h7.746v1.23zm10.26 10.188l-1.019-3.022h-4.585l-.983 3.022h-1.423l3.988-11.418h1.511l4.005 11.418h-1.494zm11.385-10.188h-3.934v10.189h-1.423V9.699h-3.952v-1.23h9.31v1.23zm10.295 0h-6.324v3.724h5.727v1.212h-5.727v4.005h6.324v1.247h-7.746V8.469h7.746v1.23zM51.732 14.186c0-6.423-5.416-11.654-12.082-11.654-.612 0-1.24.045-1.854.131-5.18.737-8.645 4.462-10.587 7.319C25.267 7.125 21.8 3.4 16.625 2.663a13.53 13.53 0 0 0-1.858-.131c-6.664 0-12.085 5.231-12.085 11.654 0 6.426 5.422 11.655 12.082 11.655.615 0 1.242-.047 1.862-.131 5.175-.743 8.641-4.466 10.583-7.329 1.942 2.863 5.407 6.586 10.588 7.329.614.084 1.242.131 1.862.131 6.657 0 12.073-5.229 12.073-11.655zm-35.69 7.433a8.934 8.934 0 0 1-1.278.097c-4.385 0-7.952-3.38-7.952-7.53 0-4.148 3.566-7.527 7.955-7.527.421 0 .848.034 1.275.093 4.881.698 7.865 5.508 8.877 7.433-1.016 1.931-4.002 6.74-8.877 7.434zm13.464-7.433c1.008-1.929 3.996-6.735 8.87-7.433.427-.06.858-.093 1.274-.093 4.387 0 7.951 3.379 7.951 7.527 0 4.15-3.564 7.53-7.944 7.53-.421 0-.855-.035-1.282-.097-4.874-.695-7.861-5.505-8.869-7.434z" />
	<rect x="11.437" y="13.05" width="7.257" height="2.335" />
	<polygon points="40.457,15.385 42.913,15.385 42.913,13.05 40.457,13.05 40.457,10.588 38.116,10.588 38.116,13.05 35.656,13.05 35.656,15.385 38.116,15.385 38.116,17.847 40.457,17.847" />
	<path d="M52.601 2.992a1.713 1.713 0 0 0-.895-.903 1.626 1.626 0 0 0-.66-.133c-.236 0-.458.043-.662.133a1.72 1.72 0 0 0-.532.361 1.718 1.718 0 0 0-.498 1.221c0 .234.047.462.135.671.09.218.214.397.363.55.149.153.328.273.531.361.204.091.427.137.662.137.236 0 .454-.045.66-.137.202-.088.381-.208.53-.361a1.733 1.733 0 0 0 .498-1.221 1.72 1.72 0 0 0-.132-.679zm-.375 1.201c-.065.161-.16.299-.28.419a1.468 1.468 0 0 1-.408.29 1.213 1.213 0 0 1-.993 0 1.309 1.309 0 0 1-.41-.29 1.361 1.361 0 0 1-.375-.941c0-.187.036-.363.101-.526.067-.168.159-.307.273-.428a1.26 1.26 0 0 1 1.811 0c.12.122.215.26.28.428.069.163.105.339.105.526.001.189-.035.362-.104.522z" />
	<path d="M51.412 3.838a.507.507 0 0 0 .219-.2.512.512 0 0 0 .08-.282.587.587 0 0 0-.171-.419c-.116-.12-.309-.176-.582-.176a5.538 5.538 0 0 0-.513.026v1.691h.427V3.92h.172l.297.557h.481l-.41-.639zm-.424-.228a.442.442 0 0 1-.127-.013v-.455a.512.512 0 0 1 .138-.017c.182 0 .273.085.273.245 0 .161-.093.24-.284.24z" />
</svg>
