<svg viewBox="0 0 18 18">
	<title>Global-Menu_Home-BBCube</title>
	<g>
		<path d="M4 3.158A.842.842 0 0 1 3.158 4H.842A.842.842 0 0 1 0 3.158V.842C0 .377.377 0 .842 0h2.316C3.623 0 4 .377 4 .842v2.316zM18 3.158a.842.842 0 0 1-.842.842h-2.316A.842.842 0 0 1 14 3.158V.842c0-.465.377-.842.842-.842h2.316c.465 0 .842.377.842.842v2.316zM11 3.158a.842.842 0 0 1-.842.842H7.842A.842.842 0 0 1 7 3.158V.842C7 .377 7.377 0 7.842 0h2.316c.465 0 .842.377.842.842v2.316zM4 17.158a.842.842 0 0 1-.842.842H.842A.842.842 0 0 1 0 17.158v-2.316C0 14.377.377 14 .842 14h2.316c.465 0 .842.377.842.842v2.316zM18 17.158a.842.842 0 0 1-.842.842h-2.316a.842.842 0 0 1-.842-.842v-2.316c0-.465.377-.842.842-.842h2.316c.465 0 .842.377.842.842v2.316zM11 17.158a.842.842 0 0 1-.842.842H7.842A.842.842 0 0 1 7 17.158v-2.316c0-.465.377-.842.842-.842h2.316c.465 0 .842.377.842.842v2.316zM4 10.158a.842.842 0 0 1-.842.842H.842A.842.842 0 0 1 0 10.158V7.842C0 7.377.377 7 .842 7h2.316c.465 0 .842.377.842.842v2.316zM18 10.158a.842.842 0 0 1-.842.842h-2.316a.842.842 0 0 1-.842-.842V7.842c0-.465.377-.842.842-.842h2.316c.465 0 .842.377.842.842v2.316zM11 10.158a.842.842 0 0 1-.842.842H7.842A.842.842 0 0 1 7 10.158V7.842C7 7.377 7.377 7 7.842 7h2.316c.465 0 .842.377.842.842v2.316z" />
	</g>
</svg>
