<svg viewBox="0 0 24 24">
	<title>Library_star_border</title>
	<path d="M23.751 9.769a.473.473 0 0 0-.271-.829l-7.657-.66a.477.477 0 0 1-.397-.287L12.435.946a.475.475 0 0 0-.874 0L8.57 8.005a.474.474 0 0 1-.397.286L.52 8.94a.475.475 0 0 0-.271.832l5.812 5.034a.475.475 0 0 1 .151.466l-1.745 7.485a.475.475 0 0 0 .708.514l6.579-3.97a.474.474 0 0 1 .49 0l6.58 3.972a.475.475 0 0 0 .708-.514l-1.735-7.486a.475.475 0 0 1 .151-.466l5.803-5.038zM15.77 18.18L12 15.9l-3.76 2.27 1-4.28-3.32-2.88 4.38-.38L12 6.6l1.71 4.04 4.38.38-3.32 2.88 1 4.28z" />
</svg>
