<svg viewBox="0 0 76.378 74.016">
	<title>Editor-Main_Sidebar-LogoCompressed</title>
	<path d="M74.321 21.771c0-9.47-7.986-17.183-17.815-17.183-.902 0-1.829.066-2.734.193-7.639 1.087-12.748 6.579-15.611 10.791-2.863-4.212-7.975-9.704-15.605-10.792a19.93 19.93 0 0 0-2.74-.193c-9.825 0-17.82 7.713-17.82 17.183 0 9.475 7.995 17.186 17.815 17.186.907 0 1.832-.069 2.745-.193 7.63-1.095 12.742-6.585 15.605-10.806 2.863 4.221 7.972 9.711 15.611 10.806.905.124 1.832.193 2.745.193 9.818 0 17.804-7.71 17.804-17.185zM21.696 32.73a13.23 13.23 0 0 1-1.884.143c-6.466 0-11.724-4.984-11.724-11.103 0-6.116 5.258-11.098 11.729-11.098.621 0 1.25.049 1.879.137 7.197 1.029 11.596 8.122 13.089 10.96-1.498 2.848-5.9 9.938-13.089 10.961zm19.853-10.959c1.487-2.844 5.892-9.931 13.079-10.96a13.677 13.677 0 0 1 1.879-.137c6.468 0 11.724 4.982 11.724 11.098 0 6.119-5.256 11.103-11.713 11.103-.621 0-1.261-.052-1.89-.143-7.189-1.025-11.592-8.117-13.079-10.961z" />
	<rect x="14.906" y="20.096" width="10.701" height="3.443" />
	<polygon points="57.695,23.539 61.317,23.539 61.317,20.096 57.695,20.096 57.695,16.466 54.244,16.466 54.244,20.096 50.616,20.096 50.616,23.539 54.244,23.539 54.244,27.169 57.695,27.169" />
	<path d="M75.601 5.266a2.547 2.547 0 0 0-.538-.8 2.552 2.552 0 0 0-.781-.533 2.408 2.408 0 0 0-.974-.196c-.347 0-.676.064-.976.196-.3.132-.563.311-.784.533a2.54 2.54 0 0 0-.734 1.801c0 .345.069.681.199.99.132.321.315.585.535.812.22.226.483.403.784.533.3.135.629.201.976.201s.67-.067.974-.201c.298-.13.562-.306.781-.533a2.552 2.552 0 0 0 .733-1.802 2.51 2.51 0 0 0-.195-1.001zm-.552 1.771a1.848 1.848 0 0 1-.413.618c-.179.179-.378.32-.602.428a1.783 1.783 0 0 1-1.464 0 1.92 1.92 0 0 1-.604-.428 2.02 2.02 0 0 1-.403-.618 2.073 2.073 0 0 1 0-1.545c.099-.248.235-.452.403-.632a1.862 1.862 0 0 1 1.343-.565c.265 0 .504.052.725.149.224.099.422.237.602.416.177.179.318.383.413.632.102.24.154.499.154.775 0 .278-.052.533-.154.77z" />
	<path d="M73.849 6.513a.753.753 0 0 0 .323-.295.765.765 0 0 0 .119-.417.87.87 0 0 0-.252-.618c-.171-.177-.455-.259-.858-.259-.155 0-.289 0-.408.011a7.104 7.104 0 0 0-.347.027v2.494h.629v-.822h.254l.439.822h.709l-.608-.943zm-.626-.336a.631.631 0 0 1-.188-.02v-.671a.793.793 0 0 1 .204-.025c.268 0 .403.125.403.362s-.137.354-.419.354zM24.123 55.455c0-1.686-.755-2.319-2.547-2.319h-2.214v4.532h2.302c1.37 0 2.459-.509 2.459-2.213z" />
	<polygon points="41.78,59.126 45.592,59.126 43.677,53.4" />
	<path d="M2.553 45.811v23.626h71.239V45.811H2.553zm9.22 17.689c-3.144 0-5.27-1.704-5.27-5.814 0-3.829 2.196-5.937 5.428-5.937 1.16 0 2.354.281 3.003.685l-.474 1.317c-.65-.527-1.669-.773-2.565-.773-2.6 0-3.882 1.686-3.882 4.673 0 3.091 1.282 4.637 3.865 4.637 1.141 0 2.318-.334 2.862-.685l.352 1.194c-.896.475-2.089.703-3.319.703zm12.737-.175l-2.459-4.445h-2.688v4.445H17.94V51.907h3.689c2.881 0 3.988 1.212 3.988 3.496 0 1.598-.808 2.705-2.126 3.197l2.705 4.725H24.51zm12.227-10.189h-6.324v3.724h5.727v1.212h-5.727v4.005h6.324v1.247h-7.746V51.907h7.746v1.229zm10.26 10.189l-1.019-3.022h-4.585l-.983 3.022h-1.423l3.988-11.418h1.511l4.005 11.418h-1.494zm11.385-10.189h-3.934v10.189h-1.423V53.136h-3.952v-1.229h9.31v1.229zm10.295 0h-6.324v3.724h5.727v1.212h-5.727v4.005h6.324v1.247h-7.746V51.907h7.746v1.229z" />
</svg>
