<svg viewBox="0 0 21 21" >
	<title>Tools-Main_Sidebar-Serial_Ports</title>
	<path d="M20.1 10h-2.4V4.6c0-2.1-1.7-3.8-3.8-3.8H13c-2.1 0-3.8 1.7-3.8 3.8v11.7c0 1.1-.9 2-2 2h-.9c-1.1 0-2-.9-2-2V11h1.6c.5 0 .9-.4.9-.9V3.4c0-.5-.4-.9-.8-.9V.9c0-.5-.4-.9-.9-.9H1.8C1.2 0 .8.4.8.9v1.6c-.4.1-.8.4-.8.9v6.7c0 .5.4.9.9.9h1.6v5.4c0 2.1 1.7 3.8 3.8 3.8h.9c1 0 2-.4 2.7-1.1.7-.7 1.1-1.7 1.1-2.7V4.6c0-1.1.9-2 2-2h.9c1.1 0 2 .9 2 2V10h-2.4c-.5 0-.9.4-.9.9v6.7c0 .5.4.9.8.9v1.6c0 .5.4.9.9.9h5c.5 0 .9-.4.9-.9v-1.6c.5 0 .8-.4.8-.9v-6.7c0-.5-.4-.9-.9-.9zm-1.8 9.2h-3.2v-.7h3.2v.7zm-4-1.6v-5.8h4.8v5.8h-4.8zM1.8 9.1V3.3h3.3v5.8H1.8zm.9-7.3h1.5v.7H2.7v-.7z" />
</svg>
