<svg viewBox="0 0 24.202 24.276" >
	<title>Global-user-profile</title>
	<path d="M20.912 19.718h-1c0-3.827-.883-6.199-5.28-6.199h-5.44c-4.397 0-5.28 2.229-5.28 5.824h-1v-.115c.017-3.337.809-6.709 6.28-6.709h5.44c5.534 0 6.28 3.639 6.28 7.199z" />
	<path d="M11.949 13.156c-2.463 0-4.467-2.1-4.467-4.68s2.004-4.68 4.467-4.68c2.463 0 4.467 2.099 4.467 4.68s-2.004 4.68-4.467 4.68zm0-8.36c-1.912 0-3.467 1.651-3.467 3.68s1.555 3.68 3.467 3.68c1.912 0 3.467-1.651 3.467-3.68s-1.555-3.68-3.467-3.68z" />
	<path d="M12.034 23.979C5.436 23.979.069 18.611.069 12.014S5.436.049 12.034.049s11.965 5.367 11.965 11.965-5.367 11.965-11.965 11.965zm0-22.43c-5.771 0-10.465 4.694-10.465 10.465s4.694 10.465 10.465 10.465 10.465-4.695 10.465-10.465S17.804 1.549 12.034 1.549z" />
</svg>
