<svg  viewBox="0 0 20 20">
	<title>Tools-Main_Sidebar-USB_Devices</title>
	<g>
		<path d="M2 0C.9 0 .1.8 0 1.9V18c0 1.1.8 1.9 1.8 2h16.1c1.1 0 2-.9 2-2V2c0-1.1-.9-2-2.1-2H2zm16 2v16H2V2h16z" />
	</g>
	<g>
		<path d="M16.6 13l-2.9-1.3v.9H7.9l1.4-1.9h.9c.2.5.6.8 1.1.8.7 0 1.2-.5 1.2-1.2s-.5-1.2-1.2-1.2c-.5 0-1 .3-1.1.8H8.9l-2 2.7h-.4c-.2-.7-.8-1.3-1.6-1.3-.9 0-1.6.7-1.6 1.6 0 .9.7 1.6 1.6 1.6.8 0 1.4-.5 1.6-1.3h1.9l1.7 2.5h1.1v.6h1.9v-1.9h-1.9v.6h-.7l-1.2-1.7h4.4v.9l2.9-1.2z" />
	</g>
	<g>
		<path d="M15.3 3.6h1.4v1.3h-1.4V3.6zm-11.9 0h1.4v1.3H3.4V3.6z" />
	</g>
	<g>
		<rect x="1.3" y="6.6" width="17.3" height="1" />
	</g>
</svg>
