<svg  viewBox="0 0 20 20.3" >
	<title>Tools-Main_Sidebar-Scheduler</title>
	<g>
		<path d="M20 4.3c0-1.1-.8-1.9-1.9-2H2c-1.1 0-1.9.8-2 1.8v14c0 1.1.9 2 2 2h16c1.1 0 2-.9 2-2.1V4.3zm-2 14H2v-14h16v14z" />
	</g>
	<g>
		<line x1="1.2" y1="10" x2="19.2" y2="10" />
		<rect x="1.2" y="9" width="18" height="1" />
	</g>
	<g>
		<line x1="1.2" y1="15" x2="18.2" y2="15" />
		<rect x="1.2" y="14" width="17" height="1" />
	</g>
	<g>
		<rect x="4.2" width="2" height="7" />
		<rect x="14.2" width="2" height="7" />
		<line x1="5.2" y1="10" x2="5.2" y2="19" />
		<rect x="5.2" y="10" width="1" height="9" />
		<g>
			<line x1="14.2" y1="10" x2="14.2" y2="19" />
			<rect x="14.2" y="10" width="1" height="9" />
		</g>
	</g>
</svg>
