<svg viewBox="0 0 24 18.8">
	<title>Global-Main_Toolbar-Internet_ON</title>
	<g>
		<path d="M13 7.7c-.1 0 0 0 0 0h-2c-.5.1-.9.5-.9 1v1.5c0 .5.4.9.9 1h2c.5-.1.9-.5.9-1V8.6c-.1-.5-.4-.9-.9-.9zM21.6 9.4c0 3-1.3 5.6-3.5 7.4l1.5 1.9c2.6-2.2 4.3-5.5 4.3-9.2 0-3.7-1.7-7.1-4.4-9.3L18.1 2c2.1 1.8 3.5 4.4 3.5 7.4zM2.4 9.4c0-3.1 1.4-5.8 3.6-7.5L4.6 0C1.8 2.2 0 5.6 0 9.4c0 3.8 1.8 7.2 4.5 9.4L6 16.9c-2.2-1.7-3.6-4.4-3.6-7.5z" />
		<path d="M17.5 9.4c0 1.7-.8 3.2-2 4.2l.8.9c1.5-1.2 2.4-3.1 2.4-5.1 0-2.1-1-4-2.5-5.2l-.8.9c1.3 1.1 2.1 2.6 2.1 4.3zM6.5 9.4c0-1.7.8-3.3 2.1-4.3l-.7-.9C6.3 5.4 5.3 7.3 5.3 9.4s1 4 2.5 5.2l.7-.9c-1.2-1-2-2.6-2-4.3z" />
	</g>
</svg>
