<svg  viewBox="0 0 130.208 28.333">
	<title>Global-WebApp_Compressed</title>
	<g>
		<path d="M51.066 14.019c0-6.423-5.416-11.654-12.082-11.654-.612 0-1.24.045-1.854.131-5.181.737-8.646 4.462-10.588 7.319-1.942-2.856-5.409-6.581-10.583-7.319a13.53 13.53 0 0 0-1.858-.131c-6.664 0-12.085 5.231-12.085 11.654 0 6.426 5.422 11.655 12.082 11.655.615 0 1.242-.047 1.862-.131 5.175-.743 8.641-4.466 10.583-7.329 1.942 2.863 5.407 6.586 10.588 7.329.614.084 1.242.131 1.862.131 6.656.001 12.073-5.228 12.073-11.655zm-35.691 7.433a8.934 8.934 0 0 1-1.278.097c-4.385 0-7.952-3.38-7.952-7.53 0-4.148 3.566-7.527 7.955-7.527.421 0 .848.034 1.275.093 4.881.698 7.865 5.508 8.877 7.433-1.016 1.932-4.001 6.74-8.877 7.434zm13.464-7.433c1.008-1.929 3.996-6.735 8.87-7.433.427-.06.858-.093 1.274-.093 4.387 0 7.951 3.379 7.951 7.527 0 4.15-3.564 7.53-7.944 7.53-.421 0-.855-.035-1.282-.097-4.874-.695-7.86-5.505-8.869-7.434z" />
		<rect x="10.77" y="12.884" width="7.257" height="2.335" />
		<polygon points="39.79,15.219 42.246,15.219 42.246,12.884 39.79,12.884 39.79,10.422 37.45,10.422 37.45,12.884 34.989,12.884 34.989,15.219 37.45,15.219 37.45,17.68 39.79,17.68" />
		<path d="M51.934 2.826a1.713 1.713 0 0 0-.895-.903 1.626 1.626 0 0 0-.66-.133c-.236 0-.458.043-.662.133-.204.09-.382.211-.531.361a1.718 1.718 0 0 0-.498 1.221c0 .234.047.462.135.671.09.218.214.397.363.55.149.154.327.274.531.362.204.091.427.137.662.137.236 0 .454-.045.66-.137.203-.088.382-.208.53-.361a1.733 1.733 0 0 0 .498-1.221 1.736 1.736 0 0 0-.133-.68zm-.375 1.201c-.065.161-.16.299-.28.419a1.468 1.468 0 0 1-.408.29 1.213 1.213 0 0 1-.993 0 1.309 1.309 0 0 1-.41-.29 1.361 1.361 0 0 1-.273-.419 1.411 1.411 0 0 1 0-1.048c.067-.168.159-.307.273-.428a1.26 1.26 0 0 1 1.811 0c.12.122.215.26.28.428.069.163.105.339.105.526 0 .188-.035.361-.105.522z" />
		<path d="M50.745 3.671a.507.507 0 0 0 .219-.2.512.512 0 0 0 .08-.282.587.587 0 0 0-.171-.419c-.116-.12-.309-.176-.582-.176a5.538 5.538 0 0 0-.513.026v1.691h.427v-.557h.172l.297.557h.481l-.41-.64zm-.424-.228a.442.442 0 0 1-.127-.013v-.455a.512.512 0 0 1 .138-.017c.182 0 .273.085.273.245 0 .162-.093.24-.284.24z" />
	</g>
	<g>
		<path d="M79.724 11.917c0-1.647-.737-2.264-2.487-2.264h-2.162v4.426h2.248c1.338-.001 2.401-.498 2.401-2.162z" />
		<polygon points="96.968,15.502 100.691,15.502 98.821,9.91" />
		<path d="M58.659 2.498v23.074h69.574V2.498H58.659zm9.003 17.276c-3.071 0-5.147-1.664-5.147-5.678 0-3.74 2.145-5.799 5.301-5.799 1.132 0 2.299.275 2.933.669l-.463 1.287c-.635-.515-1.63-.755-2.505-.755-2.539 0-3.791 1.647-3.791 4.563 0 3.019 1.252 4.529 3.774 4.529 1.115 0 2.264-.326 2.796-.669l.344 1.167c-.875.463-2.04.686-3.242.686zm12.44-.172l-2.402-4.34h-2.625v4.341h-1.389V8.451h3.603c2.813 0 3.894 1.184 3.894 3.414 0 1.561-.789 2.642-2.076 3.122l2.642 4.615h-1.647zm11.941-9.95h-6.176v3.637h5.593v1.184h-5.593v3.911h6.176v1.218h-7.565V8.451h7.565v1.201zm10.02 9.95l-.996-2.951H96.59l-.96 2.951h-1.39l3.894-11.151h1.475l3.911 11.151h-1.457zm11.119-9.95h-3.842v9.95h-1.39v-9.95h-3.86V8.451h9.092v1.201zm10.054 0h-6.176v3.637h5.593v1.184h-5.593v3.911h6.176v1.218h-7.565V8.451h7.565v1.201z" />
	</g>
</svg>
