<svg version="1" xmlns="http://www.w3.org/2000/svg" width="136" height="66"><path fill="#8C7965" d="M107 65h-2.417v-1H106V34h1z"/><path fill="#E75300" d="M90.23 38.883c-1.777 0-3.224-1.454-3.233-3.243v-.016a12.372 12.372 0 0 1 2.737-7.3 11.631 11.631 0 0 0-8.672-3.845v-.76c3.633 0 6.901 1.544 9.171 4.024a12.386 12.386 0 0 1 9.171-4.024v.76a11.628 11.628 0 0 0-8.671 3.846 12.367 12.367 0 0 1 2.735 7.3 3.247 3.247 0 0 1-3.238 3.258zm-2.472-3.238c.012 1.368 1.117 2.477 2.472 2.477a2.483 2.483 0 0 0 2.478-2.483 11.583 11.583 0 0 0-2.474-6.724 11.616 11.616 0 0 0-2.476 6.73z"/><path fill="#8C7965" d="M76.37 58.071H60.871a3.187 3.187 0 0 1-3.184-3.182V9.862a3.188 3.188 0 0 1 3.184-3.184H76.37a3.188 3.188 0 0 1 3.184 3.184v45.027a3.187 3.187 0 0 1-3.184 3.182zM60.871 7.439a2.426 2.426 0 0 0-2.423 2.423v45.027a2.426 2.426 0 0 0 2.423 2.422H76.37a2.426 2.426 0 0 0 2.423-2.422V9.862a2.426 2.426 0 0 0-2.423-2.423H60.871z"/><path fill="#8C7965" d="M57.833 54.331h-2.354V50.03h2.354v.76H56.24v2.78h1.593zm0-5.606h-2.354v-4.302h2.354v.76H56.24v2.782h1.593zm0-5.607h-2.354v-4.302h2.354v.76H56.24v2.781h1.593zm0-5.606h-2.354V33.21h2.354v.76H56.24v2.782h1.593zm0-5.609h-2.354v-4.302h2.354v.761H56.24v2.781h1.593zm0-5.605h-2.354v-4.301h2.354v.761H56.24v2.779h1.593zm0-5.608h-2.354v-4.301h2.354v.76H56.24v2.781h1.593zm0-5.605h-2.354v-4.302h2.354v.76H56.24v2.781h1.593zM81.76 54.331h-2.455v-.761H81v-2.78h-1.695v-.76h2.455zm0-5.606h-2.455v-.76H81v-2.782h-1.695v-.76h2.455zm0-5.607h-2.455v-.761H81v-2.781h-1.695v-.76h2.455zm0-5.606h-2.455v-.76H81V33.97h-1.695v-.76h2.455zm0-5.609h-2.455v-.76H81v-2.781h-1.695v-.761h2.455zm0-5.605h-2.455v-.761H81v-2.779h-1.695v-.761h2.455zm0-5.608h-2.455v-.76H81v-2.781h-1.695v-.76h2.455zm0-5.605h-2.455v-.761H81v-2.781h-1.695v-.76h2.455z"/><path fill="#8C7965" d="M55.653 24.617a12.38 12.38 0 0 1-9.168-4.023 12.382 12.382 0 0 1-9.168 4.023h-.003v-.76h.003c3.443 0 6.535-1.476 8.668-3.845a12.377 12.377 0 0 1-2.736-7.302 3.247 3.247 0 0 1 3.239-3.257c1.776 0 3.222 1.452 3.232 3.242v.018h-.001a12.37 12.37 0 0 1-2.735 7.3 11.628 11.628 0 0 0 8.669 3.843h.003v.76l-.003.001zm-9.165-14.403a2.483 2.483 0 0 0-2.478 2.481 11.59 11.59 0 0 0 2.474 6.724 11.614 11.614 0 0 0 2.476-6.73c-.013-1.366-1.117-2.475-2.472-2.475zm-33.085 14.32A12.378 12.378 0 0 1 1 12.626l.76-.03a11.618 11.618 0 0 0 11.643 11.177h.003v.76l-.003.001zm109.116 0c6.686 0 12.133-5.23 12.403-11.908l-.76-.03a11.618 11.618 0 0 1-11.643 11.177h-.003v.76l.003.001zM116 65h-2.417v-1H115V34h1z"/><path fill="#007481" d="M118.333 34.754h-6.114v-2.346a10.93 10.93 0 0 1-2.717 0v2.346h-6.114v-3.848c-3.099-2.345-4.943-6.03-4.943-9.902 0-6.844 5.57-12.413 12.416-12.413s12.415 5.569 12.415 12.413c0 3.87-1.844 7.557-4.943 9.903v3.847zm-5.353-.76h4.593v-3.47l.155-.114c2.998-2.195 4.788-5.711 4.788-9.404 0-6.425-5.229-11.652-11.655-11.652-6.427 0-11.656 5.227-11.656 11.652 0 3.693 1.79 7.209 4.787 9.403l.156.114v3.472h4.594v-2.462l.436.065c1.228.181 2.142.181 3.366 0l.436-.065v2.461z"/><path fill="#8C7965" d="M33 65h-2.417v-1H32V30.319h1zm-14 0h-2.417v-1H18V30.319h1z"/><path fill="#E75300" d="M34.726 31.079H16.26a3.188 3.188 0 0 1-3.183-3.184V4.386a3.187 3.187 0 0 1 3.183-3.185h18.465a3.188 3.188 0 0 1 3.183 3.185v23.51a3.185 3.185 0 0 1-3.182 3.183zM16.26 1.961a2.427 2.427 0 0 0-2.423 2.425v23.51a2.426 2.426 0 0 0 2.423 2.423h18.465a2.426 2.426 0 0 0 2.423-2.423V4.386a2.428 2.428 0 0 0-2.423-2.425H16.26z"/><path fill="#E75300" d="M13.457 5.208h24.071v.76H13.457zm97.901 18.485a.702.702 0 0 0 0-.996.704.704 0 1 0 0 .996z"/><path fill="#007481" d="M102.335 22.744h.954v-.956h.909v.956h.956v.906h-.956v.958h-.909v-.958h-.954zm14.232 0h.954v-.956h.908v.956h.957v.906h-.957v.958h-.908v-.958h-.954z"/><path fill="#8C7965" d="M62.453 22.199a1.41 1.41 0 1 0-1.993 1.995 1.41 1.41 0 0 0 1.993-1.995zm-.996 1.705l-.705-.707.705-.704.706.704-.706.707zm15.321-1.705a1.411 1.411 0 0 0-1.994 0 1.412 1.412 0 0 0 0 1.993 1.407 1.407 0 0 0 1.994 0 1.407 1.407 0 0 0 0-1.993zm-.996 1.705l-.705-.707.705-.704.705.704-.705.707z"/><path fill="#007481" d="M68.619 23.904l-.704-.707.704-.704.706.704"/><path fill="#E75300" d="M16.967 22.746h2.819v.906h-2.819zm14.232 0h2.819v.906h-2.819z"/><path fill="#007481" d="M24.083 23.2a1.405 1.405 0 0 0 1.406 1.408 1.41 1.41 0 0 0 1.41-1.409"/></svg>